<?xml version="1.0" encoding="utf-8"?>
<!-- Generator: Adobe Illustrator 24.0.1, SVG Export Plug-In . SVG Version: 6.00 Build 0)  -->
<svg version="1.1" id="Layer_1" xmlns="http://www.w3.org/2000/svg" xmlns:xlink="http://www.w3.org/1999/xlink" x="0px" y="0px"
	 viewBox="0 0 181.4 262.3" style="enable-background:new 0 0 181.4 262.3;" xml:space="preserve">
<style type="text/css">
	.st0{fill:#F16F2C;}
	.st1{fill:#FFFFFF;}
</style>
<g>
	<path class="st0" d="M82,3.8c18.9-3,42.3,4,58.1,14.6c19.4,13.1,32.8,33.4,37.1,56.4c7.4,37.9-14,73.3-31.5,105.3
		c-14.6,26.7-32.1,51.5-49.2,76.7c-8.8,9.9-17.6-8.1-22.1-15.2c-24.8-39.4-64-93.3-71.3-139.9C-4.3,54.1,34.5,9.7,82,3.8z"/>
	<path class="st1" d="M87.2,30.2c33.7-2,62.8,23.6,64.8,57.4c2.1,33.7-23.6,62.8-57.3,64.9c-33.8,2.1-62.9-23.6-65-57.4
		C27.6,61.3,53.4,32.3,87.2,30.2z"/>
	<path class="st0" d="M55.2,100.2c5.9,0.2,9.2,8,15.4,12.8c12.2,9.4,27.9,8.8,40.8,1.1c4.8-2.9,9.4-13.1,14.7-13.8
		c3.5,1.6,2.4,4.8,1.3,7.6c-6.1,8.1-11.9,13.7-21.7,17c-11.1,3.7-23.2,2.9-33.7-2.2c-6.3-3.1-15.8-9.9-18-17.1
		C53.2,103.1,54.1,102.3,55.2,100.2z"/>
	<path class="st0" d="M66.1,66.9c10.2-0.2,19,9.4,11.6,15.1c-5.2-0.3-3-3.3-7.5-7.5l-0.1-0.1c-8.8,0.5-4.5,2.8-10.8,7.2
		c-1.1,0.8-4.3,0.3-5.1-2.5C55.3,72.8,60.1,68.4,66.1,66.9z"/>
	<path class="st0" d="M111.4,66.8c3.2-0.2,6.4-0.2,9.3,1.2c2.7,1.2,4.7,3.5,5.6,6.3c0.8,2.5,0.6,4.3-0.6,6.6c-1.9,1.3-1,1.1-3.3,0.8
		c-1.6-0.8-3.1-4.7-4.5-6.9c-10.1-2.8-6.3,6.2-13,7.5C96.9,78.3,105.8,69.4,111.4,66.8z"/>
</g>
</svg>
