<?xml version="1.0" encoding="utf-8"?>
<!-- Svg Vector Icons : http://www.onlinewebfonts.com/icon -->
<!DOCTYPE svg PUBLIC "-//W3C//DTD SVG 1.1//EN" "http://www.w3.org/Graphics/SVG/1.1/DTD/svg11.dtd">
<svg version="1.1" xmlns="http://www.w3.org/2000/svg" xmlns:xlink="http://www.w3.org/1999/xlink" x="0px" y="0px" viewBox="0 0 256 256" enable-background="new 0 0 256 256" xml:space="preserve">
<metadata> Svg Vector Icons : http://www.onlinewebfonts.com/icon </metadata>
<g> <path fill="#000000" d="M245.7,70.4c1.8,5-3.9,16.8-18.4,36.1c-23.8,31.7-26.4,28.7-6.8,47.1c18.9,17.6,22.9,26.1,23.5,27.2 c0,0,7.9,13.8-8.7,13.9l-31.5,0.5c-6.8,1.4-15.7-4.8-15.7-4.8c-11.8-8.1-22.9-29.1-31.5-26.4c0,0-8.8,2.8-8.6,21.8 c0.1,4.1-1.8,6.3-1.8,6.3s-2.2,2.3-6.5,2.7h-14.1C94.4,196.6,67,168,67,168s-30-31-56.3-92.8c-1.7-4.1,0.1-6,0.1-6s1.8-2.3,7-2.3 l33.7-0.2c3.2,0.5,5.4,2.2,5.4,2.2s2,1.4,2.9,3.9C65.4,86.5,72.5,99,72.5,99c12.3,25.3,20.6,29.6,25.4,27c0,0,6.3-3.8,4.9-34.4 c-0.5-11.1-3.6-16.1-3.6-16.1c-2.8-3.8-8.1-4.9-10.4-5.3c-1.8-0.2,1.2-4.7,5.3-6.6c6-2.9,16.7-3.1,29.4-2.9 c10,0.1,12.8,0.7,16.6,1.6c11.7,2.8,7.7,13.6,7.7,39.7c0,8.4-1.6,20,4.4,23.8c2.6,1.7,9,0.2,24.7-26.5c0,0,7.4-12.8,13.1-27.6 c1-2.7,3.1-3.8,3.1-3.8s2-1.1,4.7-0.7l35.4-0.2C243.9,65.5,245.7,70.4,245.7,70.4z"/></g>
</svg>