<?xml version="1.0" encoding="utf-8" ?><svg xmlns="http://www.w3.org/2000/svg" xmlns:xlink="http://www.w3.org/1999/xlink" width="530" height="97" viewBox="0 0 530 97"><defs><linearGradient id="gradient_0" gradientUnits="userSpaceOnUse" x1="353.5639" y1="72.596062" x2="353.2825" y2="22.441427"><stop offset="0" stop-color="#F0622E"/><stop offset="1" stop-color="#F9A32C"/></linearGradient></defs><path fill="url(#gradient_0)" d="M340.953 22.3066C347.973 21.8459 352.696 23.0812 357.481 28.5697C357.881 28.1011 358.293 27.6365 358.735 27.2064C362.78 23.2679 368.003 22.1344 373.501 22.2356C377.786 22.3145 381.901 23.4913 384.937 26.6503C387.09 28.8898 388.493 31.8188 389.199 34.8235C390.608 40.8188 389.948 56.4939 389.801 63.3434C389.742 66.1393 389.606 69.21 387.429 71.2648C385.998 72.6163 384.034 73.2727 382.08 73.2002C379.259 73.0955 376.992 71.4385 375.987 68.813C373.136 61.3659 377.882 41.1796 373.063 36.0645C371.808 34.7325 369.983 34.2203 368.203 34.1683C366.535 34.1196 364.948 34.648 363.729 35.8001C362.8 36.6777 361.93 37.9021 361.524 39.118C359.539 45.0631 360.732 58.1774 360.56 64.9529C360.546 67.7538 359.927 70.0505 357.518 71.7508C355.989 72.812 354.103 73.2247 352.27 72.8987C343.348 71.3787 346.771 58.8579 346.196 52.3597C345.741 47.2154 347.3 41.2714 344.244 36.5699C341.571 32.4573 334.199 33.9431 332.812 38.4016C330.002 47.4839 332.386 57.1177 331.234 66.4379C330.253 75.6389 317.982 75.1276 317.391 66.7759C317.402 61.4868 316.567 55.0494 317.133 49.7947C317.881 42.8554 313.422 21.0625 325.162 22.6219C327.817 22.9746 329.69 25.0798 331.133 27.1602C333.837 24.5822 337.262 22.8891 340.953 22.3066Z"/><defs><linearGradient id="gradient_1" gradientUnits="userSpaceOnUse" x1="167.96239" y1="73.212234" x2="169.73396" y2="21.878325"><stop offset="0" stop-color="#235FA5"/><stop offset="1" stop-color="#279FD5"/></linearGradient></defs><path fill="url(#gradient_1)" d="M172.745 28.1331C177.958 23.29 183.532 21.6986 190.473 22.3697C208.17 24.0809 205.294 42.8805 205.368 55.6708C205.389 59.3246 205.309 63.0366 205.172 66.6875C205.102 68.4411 204.11 70.4347 202.719 71.4593C200.967 72.8916 199.066 73.1449 197.006 72.9775C184.966 71.9988 194.614 43.8246 188.858 36.6989C187.727 35.2985 185.962 34.2028 184.107 33.9965C182.388 33.8054 180.572 34.6104 179.232 35.6716C177.997 36.6432 177.096 37.9756 176.654 39.4833C175.321 44.0326 176.518 60.6141 175.794 66.9327C175.626 70.0038 172.806 72.9638 169.815 73.0107C161.778 73.1366 161.36 66.4076 161.438 60.3629C161.518 54.1556 161.741 48.3679 161.467 42.2931C161.185 36.0166 158.47 33.6406 152.335 34.1378C142.216 40.6661 149.218 57.7773 146.505 67.559C145.994 69.4003 145.016 71.3216 143.286 72.283C141.564 73.2404 139.157 73.1176 137.306 72.5867C135.707 72.128 134.441 71.009 133.648 69.5643C133.053 68.4783 132.844 67.3883 132.727 66.1714C132.256 61.2869 132.066 31.0289 133.04 27.7706C133.608 25.872 135.045 24.1292 136.791 23.1964C138.263 22.41 139.862 22.2936 141.453 22.783C143.881 23.5299 145.396 25.4433 146.528 27.6064L146.659 27.4436C149.503 23.9508 152.797 22.8009 157.17 22.3473C163.252 21.7183 168.718 23.4377 172.745 28.1331Z"/><path fill="#F5812D" d="M278.891 22.3311C286.115 21.8045 288.542 22.6189 294.301 27.1252C295.932 24.5072 298.931 21.9329 302.257 22.7401C305.91 23.6265 307.608 25.6934 307.8 29.4952C308.116 35.7686 307.899 42.0634 307.975 48.3461C307.97 54.2543 308.118 60.1821 307.794 66.0703C307.61 69.1224 306.948 70.4188 304.845 72.0539C299.168 76.4679 295.102 68.8005 293.796 68.6429L292.813 69.5182C277.898 80.1191 261.133 68.648 258.965 52.0929C257.217 38.7496 264.557 24.0987 278.891 22.3311ZM284.214 60.2253C287.229 59.5969 289.54 58.2184 291.254 55.6065C293.399 52.3348 293.929 48.1919 293.133 44.4042C292.514 41.4561 291.065 38.2759 288.452 36.5855C286.854 35.5517 284.715 35.0122 282.816 35.2635C279.946 35.7347 277.712 36.9122 275.986 39.3079C273.707 42.4714 273.037 46.8274 273.668 50.6202C274.171 53.6429 275.674 56.773 278.217 58.5904C279.855 59.7606 282.203 60.4231 284.214 60.2253Z"/><path fill="#237BBA" d="M84.4769 22.5272C84.9241 22.5012 85.372 22.4891 85.82 22.491C96.7208 22.5844 92.4308 40.2268 92.9461 47.2129C92.9401 51.2045 92.84 55.639 95.6954 58.8105C98.0891 61.4692 104.336 61.1667 106.747 58.639C110.03 55.1978 109.335 49.0442 109.382 44.6366C109.415 41.4893 109.241 38.1754 109.282 35.0081C109.355 31.4227 108.904 27.259 111.574 24.4513C113.877 21.9103 119.135 22.0337 121.433 24.5819C124.763 28.2754 123.716 36.3641 123.6 41.1007C123.398 52.9376 125.873 66.3747 111.92 71.8847C101.679 75.9288 84.8153 73.8772 80.517 62.2406C78.266 56.1467 78.7815 46.0785 78.8278 39.4201C78.8745 32.7112 77.0138 25.3989 84.4769 22.5272Z"/><path fill="#237BBA" d="M462.68 22.5442L462.75 22.5416C468.471 22.3877 470.624 26.6941 470.573 31.7481C470.519 37.0915 470.476 42.5535 470.461 47.8949C470.443 54.2136 471.2 60.6178 479.132 60.6086C485.909 60.3956 486.34 54.2131 486.872 48.9137C487.637 41.2997 484.124 30.4612 489.388 24.1482C491.498 21.6167 496.745 22.3867 498.72 24.5821C501.911 28.1285 501.042 36.2015 500.989 40.8047C500.968 46.1134 501.122 51.3391 500.708 56.6619C499.379 73.7698 477.48 77.4696 464.982 70.2534C454.206 64.0317 456.429 51.5472 456.256 41.0612C456.194 37.3388 456.021 33.5097 456.332 29.7934C456.731 25.656 458.577 23.5365 462.68 22.5442Z"/><defs><linearGradient id="gradient_2" gradientUnits="userSpaceOnUse" x1="237.18147" y1="22.128096" x2="230.88692" y2="73.463432"><stop offset="0" stop-color="#F9A42C"/><stop offset="1" stop-color="#F15E30"/></linearGradient></defs><path fill="url(#gradient_2)" d="M226.317 23.1443C230.76 23.1198 250.079 22.1085 253.226 24.4769C254.22 25.2254 254.857 26.5007 255.014 27.7196C255.212 29.2486 254.575 30.5843 253.858 31.8908C250.961 37.1646 246.664 41.8066 242.885 46.4652C239.299 50.9245 235.782 55.4381 232.333 60.0044C234.657 59.5293 237.023 59.4913 239.386 59.4612C243.776 59.4054 251.301 58.7039 254.69 62.0622C255.667 63.0302 256.148 64.2981 256.14 65.666C256.129 67.472 255.421 69.2754 254.134 70.5491C251.299 73.3561 246.183 72.6155 242.483 72.6036C234.713 72.3534 226.887 72.904 219.143 72.5741C216.701 72.4701 213.868 72.0108 212.145 70.1019C210.892 68.7142 211.118 66.9497 211.732 65.3147C213.54 60.4956 226.894 44.5617 230.993 39.505C231.607 38.7485 233.72 36.7538 233.763 35.9221C232.054 35.4101 229.038 36.0941 227.18 36.1398C223.309 36.2351 216.596 36.5324 213.654 33.6858C212.665 32.7291 212.241 31.4522 212.216 30.0975C212.187 28.5057 212.639 26.3426 213.778 25.1873C216.496 22.4286 222.742 23.1865 226.317 23.1443Z"/><path fill="#237BBA" d="M36.9814 23.1404C42.4254 23.013 47.8562 23.2023 53.2986 23.1755C58.023 23.1523 63.1452 22.661 67.8046 23.443C68.8785 23.6233 69.9552 24.0674 70.8045 24.7546C71.7455 25.5159 72.3755 26.5898 72.4975 27.8014C72.6306 29.1221 72.2038 30.2519 71.5877 31.3887C69.1405 35.9034 65.3899 39.9662 62.1833 43.9745C57.9368 49.2828 53.7568 54.6405 49.4159 59.8727C54.9617 59.5291 67.1382 58.3541 71.6125 61.55C72.6061 62.2596 73.327 63.2863 73.5265 64.5029C73.7992 66.1664 73.6249 68.1905 72.6203 69.5777C71.2621 71.4531 69.5276 72.1113 67.3314 72.4568L46.7668 72.4956C42.974 72.5021 38.996 72.7399 35.2236 72.3472C33.9499 72.2146 32.5328 72.0175 31.4594 71.2717C29.8195 70.1324 29.3356 68.3795 29.0094 66.5324C29.5447 64.7637 30.312 63.3021 31.3245 61.7599C34.581 56.7999 38.6685 52.369 42.371 47.7383C45.5296 43.7878 48.4804 39.3275 52.115 35.8175C47.1109 36.2356 35.8253 37.1398 31.8893 33.8135C30.7278 32.8319 30.0765 31.5276 29.9635 30.0133C29.8524 28.3776 30.3995 26.7654 31.4832 25.5347C33.0233 23.778 34.7404 23.2885 36.9814 23.1404Z"/><path fill="#237BBA" d="M442.379 22.2934C445.613 22.0201 448.609 22.3813 450.714 25.1756C455.119 31.0222 449.343 34.5197 444.346 36.2924C441.369 37.3486 436.192 39.3047 434.937 42.6619C432.135 50.1623 440.363 75.4675 425.509 72.9682C420.879 71.3445 420.307 67.8445 420.3 63.4754C420.273 52.816 420.206 42.1544 420.301 31.4954C420.324 28.9179 420.849 25.1983 423.285 23.6616C428.167 20.5832 431.629 23.8797 434.419 27.6748C436.539 25.1203 439.201 23.2642 442.379 22.2934Z"/><path fill="#237BBA" d="M403.942 57.2796C408.35 56.5545 412.517 59.5207 413.273 63.9214C414.03 68.3221 411.091 72.5082 406.694 73.2949C402.253 74.0894 398.014 71.1169 397.25 66.6724C396.486 62.2279 399.49 58.012 403.942 57.2796Z"/></svg>