<?xml version="1.0" encoding="utf-8"?>
<!-- Generator: Adobe Illustrator 24.0.1, SVG Export Plug-In . SVG Version: 6.00 Build 0)  -->
<svg version="1.1" id="Layer_1" xmlns="http://www.w3.org/2000/svg" xmlns:xlink="http://www.w3.org/1999/xlink" x="0px" y="0px"
	 viewBox="0 0 191 127" style="enable-background:new 0 0 191 127;" xml:space="preserve">
<style type="text/css">
	.st0{fill:url(#SVGID_1_);}
	.st1{fill:url(#SVGID_2_);}
	.st2{fill:#F5812D;}
	.st3{fill:#237BBA;}
	.st4{fill:url(#SVGID_3_);}
</style>
<linearGradient id="SVGID_1_" gradientUnits="userSpaceOnUse" x1="148.4038" y1="-54.2108" x2="148.1224" y2="-4.0562" gradientTransform="matrix(1 0 0 -1 0 66)">
	<stop  offset="0" style="stop-color:#F0622E"/>
	<stop  offset="1" style="stop-color:#F9A32C"/>
</linearGradient>
<path class="st0" d="M135.7,69.9c7-0.5,11.7,0.8,16.5,6.3c0.4-0.5,0.8-0.9,1.3-1.4c4-3.9,9.3-5.1,14.8-5c4.3,0.1,8.4,1.3,11.4,4.4
	c2.2,2.2,3.6,5.2,4.3,8.2c1.4,6,0.7,21.7,0.6,28.5c-0.1,2.8-0.2,5.9-2.4,7.9c-1.4,1.4-3.4,2-5.3,1.9c-2.8-0.1-5.1-1.8-6.1-4.4
	c-2.9-7.4,1.9-27.6-2.9-32.7c-1.3-1.3-3.1-1.8-4.9-1.9c-1.7,0-3.3,0.5-4.5,1.6c-0.9,0.9-1.8,2.1-2.2,3.3c-2,5.9-0.8,19.1-1,25.8
	c0,2.8-0.6,5.1-3,6.8c-1.5,1.1-3.4,1.5-5.2,1.1c-8.9-1.5-5.5-14-6.1-20.5c-0.5-5.1,1.1-11.1-2-15.8c-2.7-4.1-10-2.6-11.4,1.8
	c-2.8,9.1-0.4,18.7-1.6,28c-1,9.2-13.3,8.7-13.8,0.3c0-5.3-0.8-11.7-0.3-17c0.7-6.9-3.7-28.7,8-27.2c2.7,0.4,4.5,2.5,6,4.5
	C128.6,72.2,132,70.5,135.7,69.9z"/>
<linearGradient id="SVGID_2_" gradientUnits="userSpaceOnUse" x1="145.0622" y1="8.7843" x2="146.8338" y2="60.1182" gradientTransform="matrix(1 0 0 -1 0 66)">
	<stop  offset="0" style="stop-color:#235FA5"/>
	<stop  offset="1" style="stop-color:#279FD5"/>
</linearGradient>
<path class="st1" d="M149.7,12.1c5.2-4.8,10.8-6.4,17.7-5.8c17.7,1.7,14.8,20.5,14.9,33.3c0,3.7-0.1,7.4-0.2,11
	c-0.1,1.8-1.1,3.7-2.5,4.8c-1.8,1.4-3.7,1.7-5.7,1.5c-12-1-2.4-29.2-8.1-36.3c-1.1-1.4-2.9-2.5-4.8-2.7c-1.7-0.2-3.5,0.6-4.9,1.7
	c-1.2,1-2.1,2.3-2.6,3.8c-1.3,4.5-0.1,21.1-0.9,27.4c-0.2,3.1-3,6-6,6.1c-8,0.1-8.5-6.6-8.4-12.6c0.1-6.2,0.3-12,0-18.1
	c-0.3-6.3-3-8.7-9.1-8.2c-10.1,6.5-3.1,23.6-5.8,33.4c-0.5,1.8-1.5,3.8-3.2,4.7c-1.7,1-4.1,0.8-6,0.3c-1.6-0.5-2.9-1.6-3.7-3
	c-0.6-1.1-0.8-2.2-0.9-3.4c-0.5-4.9-0.7-35.1,0.3-38.4c0.6-1.9,2-3.6,3.8-4.6c1.5-0.8,3.1-0.9,4.7-0.4c2.4,0.7,3.9,2.7,5.1,4.8
	l0.1-0.2c2.8-3.5,6.1-4.6,10.5-5.1C140.3,5.7,145.7,7.4,149.7,12.1z"/>
<path class="st2" d="M73.7,69.9c7.2-0.5,9.7,0.3,15.4,4.8c1.6-2.6,4.6-5.2,8-4.4c3.7,0.9,5.4,3,5.5,6.8c0.3,6.3,0.1,12.6,0.2,18.9
	c0,5.9,0.1,11.8-0.2,17.7c-0.2,3.1-0.8,4.3-2.9,6c-5.7,4.4-9.7-3.3-11-3.4l-1,0.9c-14.9,10.6-31.7-0.9-33.8-17.4
	C52,86.4,59.3,71.7,73.7,69.9z M79,107.8c3-0.6,5.3-2,7-4.6c2.1-3.3,2.7-7.4,1.9-11.2c-0.6-2.9-2.1-6.1-4.7-7.8
	c-1.6-1-3.7-1.6-5.6-1.3c-2.9,0.5-5.1,1.6-6.8,4c-2.3,3.2-2.9,7.5-2.3,11.3c0.5,3,2,6.2,4.5,8C74.6,107.4,77,108,79,107.8z"/>
<path class="st3" d="M61.5,6.5c0.4,0,0.9,0,1.3,0c10.9,0.1,6.6,17.7,7.1,24.7c0,4-0.1,8.4,2.7,11.6c2.4,2.7,8.6,2.4,11.1-0.2
	c3.3-3.4,2.6-9.6,2.6-14c0-3.1-0.1-6.5-0.1-9.6c0.1-3.6-0.4-7.7,2.3-10.6c2.3-2.5,7.6-2.4,9.9,0.1c3.3,3.7,2.3,11.8,2.2,16.5
	c-0.2,11.8,2.3,25.3-11.7,30.8c-10.2,4-27.1,2-31.4-9.6c-2.3-6.1-1.7-16.2-1.7-22.8C55.9,16.7,54,9.4,61.5,6.5z"/>
<linearGradient id="SVGID_3_" gradientUnits="userSpaceOnUse" x1="32.0881" y1="-3.7596" x2="25.7935" y2="-55.0949" gradientTransform="matrix(1 0 0 -1 0 66)">
	<stop  offset="0" style="stop-color:#F9A42C"/>
	<stop  offset="1" style="stop-color:#F15E30"/>
</linearGradient>
<path class="st4" d="M21.1,70.8c4.4,0,23.8-1,26.9,1.3c1,0.7,1.6,2,1.8,3.2c0.2,1.5-0.4,2.9-1.2,4.2c-2.9,5.3-7.2,9.9-11,14.6
	c-3.6,4.5-7.1,9-10.6,13.5c2.3-0.5,4.7-0.5,7.1-0.5c4.4-0.1,11.9-0.8,15.3,2.6c1,1,1.5,2.2,1.5,3.6c0,1.8-0.7,3.6-2,4.9
	c-2.8,2.8-8,2.1-11.7,2.1c-7.8-0.3-15.6,0.3-23.3,0c-2.4-0.1-5.3-0.6-7-2.5c-1.3-1.4-1-3.2-0.4-4.8c1.8-4.8,15.2-20.8,19.3-25.8
	c0.6-0.8,2.7-2.8,2.8-3.6c-1.7-0.5-4.7,0.2-6.6,0.2c-3.9,0.1-10.6,0.4-13.5-2.5c-1-1-1.4-2.2-1.4-3.6c0-1.6,0.4-3.8,1.6-4.9
	C11.3,70,17.5,70.8,21.1,70.8z"/>
<path class="st3" d="M14,7.1c5.4-0.1,10.9,0.1,16.3,0c4.7,0,9.8-0.5,14.5,0.3c1.1,0.2,2.2,0.6,3,1.3c0.9,0.8,1.6,1.8,1.7,3
	c0.1,1.3-0.3,2.5-0.9,3.6c-2.4,4.5-6.2,8.6-9.4,12.6c-4.2,5.3-8.4,10.7-12.8,15.9c5.5-0.3,17.7-1.5,22.2,1.7c1,0.7,1.7,1.7,1.9,3
	c0.3,1.7,0.1,3.7-0.9,5.1c-1.4,1.9-3.1,2.5-5.3,2.9l-20.6,0c-3.8,0-7.8,0.2-11.5-0.1c-1.3-0.1-2.7-0.3-3.8-1.1
	c-1.6-1.1-2.1-2.9-2.5-4.7c0.5-1.8,1.3-3.2,2.3-4.8c3.3-5,7.3-9.4,11-14c3.2-4,6.1-8.4,9.7-11.9c-5,0.4-16.3,1.3-20.2-2
	c-1.2-1-1.8-2.3-1.9-3.8c-0.1-1.6,0.4-3.2,1.5-4.5C10,7.8,11.7,7.3,14,7.1z"/>
</svg>
