<svg xmlns="http://www.w3.org/2000/svg" viewBox="0 0 100 100">
  <defs>
    <linearGradient id="gradient_0" gradientUnits="userSpaceOnUse" x1="50" y1="75" x2="50" y2="25">
      <stop offset="0" stop-color="#F0622E"/>
      <stop offset="1" stop-color="#F9A32C"/>
    </linearGradient>
    <linearGradient id="gradient_1" gradientUnits="userSpaceOnUse" x1="50" y1="75" x2="50" y2="25">
      <stop offset="0" stop-color="#235FA5"/>
      <stop offset="1" stop-color="#279FD5"/>
    </linearGradient>
    <linearGradient id="gradient_2" gradientUnits="userSpaceOnUse" x1="50" y1="25" x2="50" y2="75">
      <stop offset="0" stop-color="#F9A42C"/>
      <stop offset="1" stop-color="#F15E30"/>
    </linearGradient>
  </defs>
  <!-- Упрощённая версия логотипа ZumZam для favicon -->
  <path fill="url(#gradient_0)" d="M45 20C48 19.5 50 20 52 23C52.5 22.5 53 22 53.5 21.5C55.5 19 58 18.5 60.5 18.5C62.5 18.5 64.5 19 66 20.5C67 21.5 67.5 23 68 24.5C69 28 68.5 38 68.5 42C68.5 43.5 68.2 45 67 46C66 46.5 64.5 46.5 63 46.2C61.5 46 60.5 45 60 43.5C59 40 60 33 58.5 30C58 29 57 28.5 56 28.3C55 28.2 54 28.5 53.5 29C53 29.5 52.5 30.5 52.2 31.5C51.5 35 52 42 52 44.5C52 45.5 51.5 46.5 50.5 47C49.5 47.5 48.5 47.5 47.5 47.2C44 46.5 46 40 45.5 36.5C45.2 33.5 45.5 29.5 44 27C43 25 41 24.5 40 25.5C38.5 32 40 38 39.5 44.5C39 50 35 50 34.5 44.5C34.5 42 34 38 34.2 34.5C34.5 30 32 20 38 20.5C39 20.6 39.5 21 40 21.5C41.5 20 43 19.5 45 20Z"/>
  <path fill="url(#gradient_1)" d="M30 22C32 20 34.5 19.5 37.5 20C45 21 44 30 44 38C44 40.5 44 43 43.8 45.5C43.7 46.5 43 47.5 42 48C40.5 48.5 39 48.5 37.5 48.2C32 47.5 36 32 33.5 28C32.5 27 31.5 26.5 30.5 26.3C29.5 26.2 28.5 26.5 28 27C27.5 27.5 27 28.5 26.8 29.5C26 32 26.5 42 26 45.5C25.8 47 25 48.5 24 49C21 49.5 21 45.5 21.2 42C21.5 37.5 21.7 33 21.5 28.5C21.2 24 19.5 22.5 16.5 23C11 25 14 35 12.5 42C12.2 43.5 12 44.5 11.5 45.5C11 46.5 10 47 9 46.5C8.5 46.2 8 45.5 7.8 44.5C7.5 42 7.5 25 8 22.5C8.3 21 9 20 10 19.5C10.5 19.2 11 19.2 11.5 19.5C12.5 20 13 21 13.2 22L13.3 22C14.5 20 16 19 18 18.5C21 18 23.5 19 30 22Z"/>
  <path fill="#F5812D" d="M52 20C55 19.5 56 20 59 22.5C60 20.5 62.5 19.5 65 20C67 20.5 68 21.5 68 24C68.2 28 68 32 68.1 36C68.1 38.5 68.2 41 68 43.5C67.8 45.5 67.2 46.5 65.5 47.5C61 50 59.5 45.5 59 45.5L58.5 46C50 52 42 45.5 41 35.5C40 28 44 20 52 20ZM56.5 40C58 39.5 59 38.5 59.5 37C60 35 60 33.5 59.5 31.5C59 30 58 28.5 56.5 28C55.5 27.8 54.5 28 54 29C53 30.5 52.5 33 53 35C53.3 36.5 54 38 55.5 39C56 39.2 56.3 39.5 56.5 40Z"/>
  <path fill="#237BBA" d="M15 20C15.2 20 15.5 20 15.8 20C20 20.2 18.5 28 18.7 32C18.7 33.5 18.6 36 20 38C21 39.5 24 39.5 25.5 38C27 36.5 26.5 33 26.5 30.5C26.5 28.5 26.4 26.5 26.5 24.5C26.6 22.5 26.3 20.5 28 19.5C29 19 31.5 19.2 32.5 20C34.5 21.5 33.5 26 33.4 29C33.2 36 34 42 28 45C24 47 20 46 18 42C17 40 17.5 35 17.6 32C17.7 28.5 17 24 15 20Z"/>
  <path fill="url(#gradient_2)" d="M50 20C52 20 58 19.5 60 20.5C60.5 20.8 61 21.5 61.2 22.5C61.5 23.5 61 24.5 60.5 25.5C58.5 29 57 32 55.5 35C54 38 52.5 41 51 44C52 43.8 53 43.8 54 43.8C55.5 43.8 58 43.5 59.5 45C60 45.5 60.2 46.5 60.2 47.5C60.2 48.5 59.8 49.5 59 50C57.5 50.5 55.5 50.5 54 50.5C52 50.3 50 50.5 48 50.3C47 50.2 46 50 45.5 49C45 48 45.2 47 45.5 46C46.5 42 50 30 51 26.5C51.2 26 52 25 52.1 24.5C50.5 24.2 48.5 24.5 47.5 24.6C46 24.7 43 25 41.5 23.5C41 23 40.8 22 40.8 21C40.8 19.5 41.2 18.5 42 17.5C43.5 16 46 16.5 50 20Z"/>
</svg>
