<svg id="Layer_1" data-name="Layer 1" xmlns="http://www.w3.org/2000/svg" viewBox="0 0 1282.49 280.95"><defs><style>.cls-1{fill:#4c94d3;}.cls-2{fill:#f16f2c;}.cls-3{fill:#fff;}</style></defs><title>tutdeti_logo</title><path class="cls-1" d="M680.39,229.65c.06-22.88-3.48-28.36-25.92-28.39l-.18-101.5c-.06-15.83.16-31.82-.67-47.62-.49-3.88-1.63-9.33-4.88-11.81-16.4-12.51-128.18-1.84-130.09,3.45a10.57,10.57,0,0,0-.4,1.54c-2.77,12.54-1,26.43-1,39.24.06,39.42-3.58,81.93-23.8,116.78-19.72-.07-23.11,11.49-22.57,29.47.43,14.44-2.41,31.7,3.25,45,2.86,6.27,10.12,10.3,17,10.11,26.51-.77,21.71-27.73,21.49-46.62l57.2.09,69.69-.15c0,10.92-2.8,32.38,5.43,40.39,11.21,10.9,31.11,7.48,34.63-9.28C681.55,258.44,680.36,242,680.39,229.65Zm-86.67-28.21-53-.12c17-44.57,19.48-80.69,18.44-128.27L611.89,73l0,128.45Z" transform="translate(-52.18 -20.02)"/><path class="cls-2" d="M1229.66,20.79c20.49-3.29,45.95,4.36,63.08,15.81A94.8,94.8,0,0,1,1333,97.82c8,41.16-15.18,79.58-34.19,114.34-15.86,29-34.88,55.93-53.39,83.3-9.52,10.7-19.1-8.8-24-16.52-27-42.83-69.53-101.35-77.44-151.9C1136,75.36,1178.13,27.18,1229.66,20.79Z" transform="translate(-52.18 -20.02)"/><path class="cls-3" d="M1235.3,49.47A66.51,66.51,0,1,1,1172.9,120,66.5,66.5,0,0,1,1235.3,49.47Z" transform="translate(-52.18 -20.02)"/><path class="cls-2" d="M1200.6,125.48c6.42.27,9.93,8.66,16.71,13.88,13.29,10.23,30.29,9.61,44.3,1.18,5.24-3.15,10.23-14.22,16-15,3.84,1.74,2.66,5.25,1.43,8.25-6.57,8.84-12.9,14.83-23.61,18.46a48.23,48.23,0,0,1-36.62-2.39c-6.87-3.42-17.11-10.8-19.55-18.55C1198.39,128.61,1199.36,127.73,1200.6,125.48Z" transform="translate(-52.18 -20.02)"/><path class="cls-2" d="M1212.37,89.25c11-.21,20.63,10.24,12.61,16.38-5.63-.37-3.22-3.58-8.09-8.15l-.16-.15c-9.56.56-4.86,3.08-11.68,7.79-1.24.85-4.63.3-5.57-2.72C1200.63,95.68,1205.91,90.89,1212.37,89.25Z" transform="translate(-52.18 -20.02)"/><path class="cls-2" d="M1261.6,89.23c3.48-.24,6.91-.26,10.15,1.27a11.57,11.57,0,0,1,6.09,6.86,8.18,8.18,0,0,1-.7,7.14c-2,1.42-1.12,1.19-3.58.88-1.68-.87-3.32-5.11-4.88-7.53-11-3-6.82,6.69-14.06,8.12C1245.8,101.67,1255.48,92,1261.6,89.23Z" transform="translate(-52.18 -20.02)"/><path class="cls-1" d="M785.23,202.24c-27.59,11.47-52.09,4-59.35-25.56l59.14.1c9.94,0,21,.49,30.89-.64,10.07-1.16,12.77-10.48,12.51-19.35a75.36,75.36,0,0,0-23.64-53.07C790.16,90,773.32,85.43,753.67,86.18c-.73,0-1.45.09-2.17.18-68.6,7-88.33,99-38.77,140.27,24.7,20.55,64.45,20.4,92.27,5.91,14-7.31,27.78-21.32,13.46-36.16C803.31,186.33,798,196.92,785.23,202.24ZM754.1,119.51c20.39-1.69,30.3,11.76,34.86,29.73-7.94.41-20,.09-28.24.11l-34.33-.07C728.89,133.05,738.1,122.88,754.1,119.51Z" transform="translate(-52.18 -20.02)"/><path class="cls-1" d="M996.54,86.85c1.11-.08,2.22-.13,3.32-.16,25.23-.65,21.73,25.14,21.82,42.38l.29,42.12c14.57-24.53,40.79-54,57.38-78.08,7.38-10.71,35.44-7.85,37.39,9.17,2.07,18,1,37.59,1,56.27l.1,39.41c0,17.92,4.37,38.8-17.48,43.66-1.59.1-3.19.16-4.78.18-24.93,0-20.56-29.19-20.33-45.68l.18-37.87c-19.7,25.38-38.43,52.51-58.59,77.59-2.27,2.11-6.19,4.73-9.24,5.31-24,4.59-29-11.67-28.54-30.66.89-34.82-.76-67.71.35-102.31C979.82,96,985.35,89.94,996.54,86.85Z" transform="translate(-52.18 -20.02)"/><path class="cls-2" d="M207.81,86.3c10.7-.08,18.66,3.24,22.82,13.54,10.18,25.23,18.85,51.21,29.16,76.38,8.84-24.72,19-49.17,28.25-73.75,2.71-6.81,5-11.21,12-14.16,16-6.77,35.09,5,30.78,23.21-2.74,11.59-9.18,24.94-13.88,36.26l-26.39,63.47-24.69,59.31c-4.08,9.71-8.68,24.37-19.32,28.45-13.94,6.69-35.41-4.57-30.36-21.25,4.5-14.87,14.28-34,20.84-48.56-2.85-7.79-7.79-18.28-11.14-26.18L200.49,143.2C192.25,123.56,173.43,91.77,207.81,86.3Z" transform="translate(-52.18 -20.02)"/><path class="cls-2" d="M70.6,34.8c.89-.06,1.78-.09,2.66-.1l73.08,0c14.16,0,28.57-.64,42.48.91,21.47,1.93,22.11,34.56,1.31,37.61-11.39,1.67-26.47.85-38.21.79.58,15.68.24,32.64.23,48.42l0,82.81c.13,9.69,1.43,22.78-6,30.22-8.72,8.59-25.71,8.88-34.43.11-7.24-7.28-6.24-16.78-6.25-26.27,0-10.56.06-21.16.06-31.75V74C93.14,74,69.25,76,59.8,69.18a17.91,17.91,0,0,1-7.31-11.9C50.46,44.45,58.38,36.66,70.6,34.8Z" transform="translate(-52.18 -20.02)"/><path class="cls-2" d="M357,88.86c1.23-.06,2.46-.11,3.7-.14,33.65-.62,69.6-.33,103.26.77,14,.46,19.14,21.6,9.64,30.27-8.56,7.82-31.39,5.34-43.1,5.29l0,86c.18,7.94.56,17.2-5,23.63-7.63,8.86-22.08,9.74-30.9,2.07a19.27,19.27,0,0,1-6.28-10.49c-1.27-5.65-.89-21-.89-27.38l.06-47.63c0-7.88.33-18.69-.21-26.22-9.65-.08-33.28,1.93-40.35-4.09C334.48,110.42,339.32,91.47,357,88.86Z" transform="translate(-52.18 -20.02)"/><path class="cls-1" d="M847.46,88.85l2-.09c19.76-.72,41.6.31,61.67-.07,14.26.39,28.58-.84,42.75.79S972,111,963,119.53c-8.54,8.08-31.32,5.54-42.67,5.45v86.65c0,.82,0,1.63,0,2.45-.11,8.18.06,16.11-6.36,22.14-8.16,7.66-22.5,7.68-30.26-.5a19.36,19.36,0,0,1-5.15-10.1c-1.48-7.92-1-30.67-.94-40,.13-19.89-.27-40.67.23-60.48-14.7-.58-44.39,4.83-47.81-14.94a17.71,17.71,0,0,1,3-13.46C836.94,91.27,841.24,89.87,847.46,88.85Z" transform="translate(-52.18 -20.02)"/></svg>